<?xml version="1.0" encoding="UTF-8"?>
<!-- Optimized for Favicon Visibility: Viewbox adjusted to crop empty space -->
<svg xmlns="http://www.w3.org/2000/svg" viewBox="50 150 900 700">
  <style>
    path { fill: #000000; }
    @media (prefers-color-scheme: dark) {
      path { fill: #ffffff; }
    }
  </style>
  <g transform="translate(0, 1024) scale(0.1, -0.1)">
    <path d="M4532 7113 c25 -60 134 -312 242 -561 108 -249 194 -457 191 -462 -17
     -27 -496 -290 -528 -290 -9 0 -19 10 -23 22 -8 25 -252 567 -276 612 -15 28
     -17 22 -244 -544 -126 -316 -230 -577 -232 -581 -2 -5 215 -10 483 -11 l486
     -3 39 -41 c52 -56 64 -105 65 -254 0 -114 -2 -129 -25 -174 -14 -28 -42 -64
     -63 -80 l-39 -31 -593 -3 -592 -3 -93 -237 c-92 -234 -161 -416 -174 -459 -7
     -23 -7 -23 107 -23 l114 0 31 50 c34 55 101 104 167 121 22 6 72 9 110 7 159
     -11 262 -115 273 -274 8 -131 -50 -234 -166 -291 -47 -23 -70 -28 -132 -28
     -147 1 -247 78 -294 228 -5 16 -19 17 -148 15 l-142 -3 -59 -147 -60 -148
     -359 0 c-280 0 -358 3 -358 13 0 6 25 73 56 147 31 74 109 266 174 425 65 160
     125 306 133 325 l15 36 -234 384 c-243 398 -265 444 -266 545 -1 49 11 79 143
     350 l143 296 -45 39 c-25 21 -58 63 -74 96 -27 53 -30 69 -30 149 0 105 23
     163 90 230 68 68 124 90 235 90 84 0 102 -3 151 -28 110 -53 179 -164 179
     -286 0 -180 -118 -312 -301 -336 l-46 -6 -137 -283 c-140 -291 -149 -320 -125
     -383 5 -15 96 -169 202 -342 l191 -314 24 54 c13 30 76 180 139 334 63 154
     167 406 231 560 126 306 485 1184 589 1443 l66 162 372 0 372 0 45 -107z
     m3328 75 c0 -56 -73 -552 -83 -565 -7 -10 -184 -13 -822 -13 l-813 0 -11 -42
     c-6 -24 -68 -261 -136 -528 -68 -267 -152 -591 -185 -720 -34 -129 -142 -553
     -240 -942 -99 -389 -189 -741 -201 -783 l-22 -75 -314 0 c-242 0 -315 3 -318
     13 -3 6 103 444 236 972 132 528 315 1257 405 1620 90 363 190 758 221 878
     l57 217 1113 0 1113 0 0 -32z m-1301 -964 c58 -32 322 -177 586 -324 264 -146
     525 -290 580 -320 55 -29 108 -60 119 -69 67 -58 67 -213 0 -273 -33 -29
     -1402 -788 -1422 -788 -17 0 -27 82 -27 215 0 95 4 126 16 145 10 16 192 124
     477 285 254 143 461 262 461 265 1 5 -436 249 -754 422 -99 54 -186 105 -192
     115 -30 40 6 383 40 383 6 0 58 -25 116 -56z m1165 -2133 c4 -5 0 -56 -8 -113
     -7 -56 -24 -183 -37 -280 l-24 -178 -992 0 c-849 0 -993 2 -993 14 0 22 107
     477 120 511 6 16 16 35 22 42 8 10 199 13 959 13 557 0 950 -4 953 -9z"/>
    <path d="M2510 6458 c-62 -32 -84 -66 -84 -132 -1 -40 5 -62 20 -83 72 -98
     195 -98 268 -1 26 37 27 112 0 159 -21 37 -92 79 -134 79 -14 0 -46 -10 -70
     -22z"/>
    <path d="M3593 3980 c-97 -59 -76 -199 34 -229 110 -31 204 96 141 189 -42 61
     -113 78 -175 40z"/>
  </g>
</svg>
